<svg width="22" height="22" viewBox="0 0 22 22" fill="none" xmlns="http://www.w3.org/2000/svg">
<path fill-rule="evenodd" clip-rule="evenodd" d="M6.14722 2.7192C6.9832 2.65249 7.77684 2.32375 8.41515 1.77979C9.90469 0.510413 12.0955 0.510413 13.585 1.77979C14.2234 2.32375 15.017 2.65249 15.853 2.7192C17.8038 2.87488 19.353 4.42402 19.5087 6.37488C19.5754 7.21086 19.9041 8.0045 20.4481 8.64281C21.7174 10.1324 21.7174 12.3232 20.4481 13.8127C19.9041 14.451 19.5754 15.2447 19.5087 16.0806C19.353 18.0315 17.8038 19.5806 15.853 19.7363C15.017 19.803 14.2234 20.1318 13.585 20.6757C12.0955 21.9451 9.90469 21.9451 8.41515 20.6757C7.77684 20.1318 6.9832 19.803 6.14722 19.7363C4.19636 19.5806 2.64722 18.0315 2.49154 16.0806C2.42483 15.2447 2.09609 14.451 1.55213 13.8127C0.282752 12.3232 0.282752 10.1324 1.55213 8.64281C2.09609 8.0045 2.42483 7.21086 2.49154 6.37488C2.64722 4.42402 4.19636 2.87488 6.14722 2.7192ZM15.8193 9.547C16.327 9.03932 16.327 8.2162 15.8193 7.70852C15.3117 7.20084 14.4885 7.20084 13.9809 7.70852L9.7001 11.9893L8.01934 10.3085C7.51165 9.80084 6.68854 9.80084 6.18086 10.3085C5.67318 10.8162 5.67318 11.6393 6.18086 12.147L8.78086 14.747C9.28854 15.2547 10.1117 15.2547 10.6193 14.747L15.8193 9.547Z" fill="#0A102F"/>
</svg>
