<svg width="1142" height="486" viewBox="0 0 1142 486" fill="none" xmlns="http://www.w3.org/2000/svg">
<mask id="mask0_3823_285" style="mask-type:alpha" maskUnits="userSpaceOnUse" x="-249" y="-490" width="1360" height="1329">
<g opacity="0.15">
<line x1="135.84" y1="-489.422" x2="-248.134" y2="516.805" stroke="#724FE5"/>
<line x1="195.973" y1="-466.476" x2="-188.001" y2="539.751" stroke="#724FE5"/>
<line x1="256.106" y1="-443.529" x2="-127.868" y2="562.698" stroke="#724FE5"/>
<line x1="316.239" y1="-420.582" x2="-67.7357" y2="585.646" stroke="#724FE5"/>
<line x1="376.373" y1="-397.635" x2="-7.60092" y2="608.592" stroke="#724FE5"/>
<line x1="436.506" y1="-374.689" x2="52.5319" y2="631.538" stroke="#724FE5"/>
<line x1="496.639" y1="-351.742" x2="112.665" y2="654.485" stroke="#724FE5"/>
<line x1="556.772" y1="-328.795" x2="172.798" y2="677.432" stroke="#724FE5"/>
<line x1="616.905" y1="-305.848" x2="232.93" y2="700.379" stroke="#724FE5"/>
<line x1="677.039" y1="-282.901" x2="293.065" y2="723.326" stroke="#724FE5"/>
<line x1="737.17" y1="-259.956" x2="353.196" y2="746.271" stroke="#724FE5"/>
<line x1="797.303" y1="-237.009" x2="413.329" y2="769.218" stroke="#724FE5"/>
<line x1="857.436" y1="-214.062" x2="473.462" y2="792.165" stroke="#724FE5"/>
<line x1="917.571" y1="-191.115" x2="533.596" y2="815.112" stroke="#724FE5"/>
<line x1="977.703" y1="-168.169" x2="593.729" y2="838.058" stroke="#724FE5"/>
<line x1="-217.062" y1="433.978" x2="789.165" y2="817.953" stroke="#724FE5"/>
<line x1="-194.115" y1="373.845" x2="812.112" y2="757.82" stroke="#724FE5"/>
<line x1="-171.167" y1="313.713" x2="835.059" y2="697.687" stroke="#724FE5"/>
<line x1="-148.22" y1="253.58" x2="858.007" y2="637.554" stroke="#724FE5"/>
<line x1="-125.275" y1="193.446" x2="880.952" y2="577.42" stroke="#724FE5"/>
<line x1="-102.328" y1="133.313" x2="903.899" y2="517.287" stroke="#724FE5"/>
<line x1="-79.3823" y1="73.1793" x2="926.845" y2="457.154" stroke="#724FE5"/>
<line x1="-56.435" y1="13.0465" x2="949.792" y2="397.021" stroke="#724FE5"/>
<line x1="-33.4878" y1="-47.086" x2="972.739" y2="336.888" stroke="#724FE5"/>
<line x1="-10.5405" y1="-107.219" x2="995.687" y2="276.755" stroke="#724FE5"/>
<line x1="12.4048" y1="-167.353" x2="1018.63" y2="216.621" stroke="#724FE5"/>
<line x1="35.3521" y1="-227.485" x2="1041.58" y2="156.489" stroke="#724FE5"/>
<line x1="58.2974" y1="-287.619" x2="1064.52" y2="96.3558" stroke="#724FE5"/>
<line x1="81.2447" y1="-347.752" x2="1087.47" y2="36.222" stroke="#724FE5"/>
</g>
</mask>
<g mask="url(#mask0_3823_285)">
<rect x="112.031" y="-511.727" width="1138.54" height="1116" transform="rotate(20.8868 112.031 -511.727)" fill="url(#paint0_radial_3823_285)"/>
</g>
<defs>
<radialGradient id="paint0_radial_3823_285" cx="0" cy="0" r="1" gradientUnits="userSpaceOnUse" gradientTransform="translate(681.303 46.2721) rotate(90) scale(557.999 569.271)">
<stop stop-color="#724FE5"/>
<stop offset="1" stop-color="#724FE5" stop-opacity="0"/>
</radialGradient>
</defs>
</svg>
