<svg width="24" height="24" viewBox="0 0 24 24" fill="none" xmlns="http://www.w3.org/2000/svg">
<path d="M20.7615 6.47619C22.5499 6.47619 23.9996 5.02645 23.9996 3.2381C23.9996 1.44974 22.5499 0 20.7615 0C18.9732 0 17.5234 1.44974 17.5234 3.2381C17.5234 5.02645 18.9732 6.47619 20.7615 6.47619Z" fill="#E35523"/>
<path d="M20.7619 17.5238C20.6558 17.5238 20.5511 17.5297 20.4475 17.5397C21.0722 16.5846 21.5303 15.5305 21.8025 14.4222C21.8383 14.2753 21.8143 14.1201 21.7358 13.9908C21.6574 13.8615 21.5308 13.7685 21.384 13.7324C21.2371 13.6962 21.0819 13.7198 20.9524 13.7979C20.8228 13.8761 20.7296 14.0024 20.6931 14.1492C20.2391 15.9975 19.2062 17.6523 17.745 18.8719C16.2839 20.0915 14.4711 20.812 12.5714 20.9283V18.0952C12.5714 17.9437 12.5112 17.7984 12.404 17.6912C12.2969 17.584 12.1515 17.5238 12 17.5238C11.7474 17.5238 11.5052 17.4235 11.3266 17.2448C11.148 17.0662 11.0476 16.824 11.0476 16.5714C11.0476 16.3188 11.148 16.0766 11.3266 15.898C11.5052 15.7194 11.7474 15.619 12 15.619C12.1515 15.619 12.2969 15.5588 12.404 15.4516C12.5112 15.3445 12.5714 15.1991 12.5714 15.0476V14.2849C12.5714 14.1334 12.5112 13.988 12.4041 13.8809C12.2969 13.7737 12.1516 13.7135 12 13.7135C11.8484 13.7135 11.7031 13.7737 11.5959 13.8809C11.4888 13.988 11.4286 14.1334 11.4286 14.2849V14.5554C10.9898 14.6798 10.6036 14.944 10.3286 15.3079C10.0535 15.6717 9.90475 16.1153 9.90475 16.5714C9.90475 17.0275 10.0535 17.4711 10.3286 17.835C10.6036 18.1988 10.9898 18.463 11.4286 18.5874V20.9322C9.25766 20.7906 7.21235 19.8643 5.67402 18.326C4.13569 16.7876 3.20938 14.7423 3.06781 12.5714H5.90476C6.05631 12.5714 6.20165 12.5112 6.30882 12.404C6.41598 12.2969 6.47618 12.1515 6.47619 12C6.47619 11.7474 6.57653 11.5052 6.75514 11.3265C6.93374 11.1479 7.17599 11.0476 7.42857 11.0476C7.68116 11.0476 7.9234 11.1479 8.10201 11.3265C8.28061 11.5052 8.38095 11.7474 8.38095 12C8.38096 12.1515 8.44117 12.2969 8.54833 12.404C8.65549 12.5112 8.80083 12.5714 8.95238 12.5714H9.71353C9.86508 12.5714 10.0104 12.5112 10.1176 12.404C10.2248 12.2969 10.285 12.1515 10.285 12C10.285 11.8484 10.2248 11.7031 10.1176 11.5959C10.0104 11.4888 9.86508 11.4286 9.71353 11.4286H9.44457C9.32015 10.9898 9.05597 10.6036 8.69213 10.3285C8.32829 10.0535 7.88466 9.90473 7.42857 9.90473C6.97249 9.90473 6.52886 10.0535 6.16502 10.3285C5.80118 10.6036 5.53699 10.9898 5.41257 11.4286H3.07173C3.18792 9.52886 3.90843 7.71608 5.12805 6.25496C6.34766 4.79384 8.00248 3.76093 9.85082 3.30709C9.99742 3.27035 10.1235 3.17704 10.2015 3.04757C10.2794 2.9181 10.3029 2.76301 10.2668 2.61626C10.2307 2.46951 10.1379 2.34303 10.0088 2.26452C9.87964 2.18601 9.72466 2.16186 9.57775 2.19734C8.46948 2.46957 7.41538 2.92775 6.46029 3.55239C6.52512 2.88829 6.38319 2.22038 6.05392 1.64003C5.72464 1.05968 5.22411 0.595231 4.62078 0.310223C4.01746 0.0252155 3.34081 -0.0664319 2.68341 0.0478183C2.02601 0.162069 1.41997 0.476636 0.948177 0.948489C0.476389 1.42034 0.161903 2.02643 0.0477428 2.68385C-0.0664179 3.34127 0.0253218 4.0179 0.310412 4.62118C0.595502 5.22447 1.06002 5.72494 1.64041 6.05413C2.22081 6.38333 2.88874 6.52517 3.55283 6.46025C2.47508 8.10755 1.90224 10.0339 1.90477 12.0025C1.90729 13.971 2.48506 15.8959 3.56703 17.5404C2.90225 17.4728 2.23281 17.6125 1.65058 17.9404C1.06836 18.2683 0.601892 18.7684 0.315197 19.372C0.0285018 19.9756 -0.0643688 20.6531 0.0493308 21.3116C0.16303 21.9701 0.477727 22.5772 0.950233 23.0498C1.42274 23.5223 2.02989 23.837 2.68837 23.9507C3.34685 24.0644 4.02438 23.9715 4.62798 23.6848C5.23157 23.3981 5.73165 22.9316 6.05959 22.3494C6.38752 21.7672 6.52723 21.0977 6.45955 20.433C8.10408 21.5149 10.029 22.0927 11.9975 22.0952C13.9661 22.0977 15.8924 21.5249 17.5397 20.4472C17.5297 20.5508 17.5238 20.6557 17.5238 20.7619C17.5238 21.4023 17.7137 22.0284 18.0695 22.5609C18.4253 23.0934 18.9311 23.5084 19.5227 23.7535C20.1144 23.9986 20.7655 24.0627 21.3936 23.9378C22.0218 23.8128 22.5987 23.5044 23.0516 23.0516C23.5044 22.5987 23.8128 22.0217 23.9378 21.3936C24.0627 20.7655 23.9986 20.1144 23.7535 19.5227C23.5084 18.931 23.0934 18.4253 22.5609 18.0695C22.0284 17.7137 21.4023 17.5238 20.7619 17.5238ZM1.14286 3.23808C1.14286 2.82368 1.26574 2.41859 1.49597 2.07403C1.7262 1.72947 2.05343 1.46091 2.43628 1.30233C2.81914 1.14375 3.24042 1.10225 3.64686 1.1831C4.05329 1.26394 4.42663 1.4635 4.71965 1.75652C5.01268 2.04954 5.21223 2.42288 5.29308 2.82932C5.37392 3.23575 5.33243 3.65704 5.17384 4.03989C5.01526 4.42274 4.74671 4.74998 4.40215 4.9802C4.05759 5.21043 3.6525 5.33332 3.2381 5.33332C2.68261 5.33266 2.15006 5.1117 1.75727 4.71891C1.36448 4.32612 1.14352 3.79357 1.14286 3.23808ZM3.2381 22.8571C2.8237 22.8571 2.41861 22.7342 2.07405 22.504C1.72949 22.2738 1.46093 21.9466 1.30235 21.5637C1.14377 21.1808 1.10227 20.7596 1.18312 20.3531C1.26396 19.9467 1.46352 19.5734 1.75654 19.2803C2.04956 18.9873 2.4229 18.7878 2.82934 18.7069C3.23577 18.6261 3.65706 18.6676 4.03991 18.8261C4.42276 18.9847 4.75 19.2533 4.98022 19.5978C5.21045 19.9424 5.33334 20.3475 5.33334 20.7619C5.33264 21.3174 5.11168 21.8499 4.71889 22.2427C4.32611 22.6355 3.79358 22.8564 3.2381 22.8571ZM20.7619 22.8571C20.3475 22.8571 19.9424 22.7342 19.5979 22.504C19.2533 22.2738 18.9847 21.9466 18.8262 21.5637C18.6676 21.1808 18.6261 20.7596 18.7069 20.3531C18.7878 19.9467 18.9873 19.5734 19.2803 19.2803C19.5734 18.9873 19.9467 18.7878 20.3531 18.7069C20.7596 18.6261 21.1809 18.6676 21.5637 18.8261C21.9466 18.9847 22.2738 19.2533 22.504 19.5978C22.7343 19.9424 22.8571 20.3475 22.8571 20.7619C22.8565 21.3174 22.6355 21.8499 22.2427 22.2427C21.8499 22.6355 21.3174 22.8564 20.7619 22.8571Z" fill="white"/>
<path d="M16.7688 3.1043C15.3034 2.3149 13.6646 1.90251 12.0001 1.9043C11.8486 1.90431 11.7032 1.96452 11.5961 2.07168C11.4889 2.17884 11.4287 2.32418 11.4287 2.47573V5.9043C11.4287 6.05585 11.4889 6.20119 11.5961 6.30835C11.7032 6.41552 11.8486 6.47572 12.0001 6.47573C12.2527 6.47573 12.495 6.57607 12.6736 6.75468C12.8522 6.93328 12.9525 7.17553 12.9525 7.42811C12.9525 7.6807 12.8522 7.92294 12.6736 8.10155C12.495 8.28015 12.2527 8.38049 12.0001 8.38049C11.8486 8.3805 11.7032 8.44071 11.5961 8.54787C11.4889 8.65503 11.4287 8.80037 11.4287 8.95192V11.9995C11.4287 12.1511 11.4889 12.2964 11.5961 12.4036C11.7032 12.5108 11.8486 12.571 12.0001 12.571H14.5556C14.68 13.0098 14.9442 13.396 15.308 13.671C15.6719 13.946 16.1155 14.0948 16.5716 14.0948C17.0277 14.0948 17.4713 13.946 17.8351 13.671C18.199 13.396 18.4631 13.0098 18.5876 12.571H21.5239C21.6755 12.571 21.8208 12.5108 21.928 12.4036C22.0352 12.2964 22.0954 12.1511 22.0954 11.9995C22.0972 10.335 21.6848 8.69626 20.8954 7.23087C20.3482 7.25027 19.803 7.1568 19.2935 6.95629C18.7841 6.75577 18.3214 6.45251 17.9343 6.06538C17.5472 5.67826 17.2439 5.21557 17.0434 4.70614C16.8429 4.1967 16.7494 3.65143 16.7688 3.1043Z" fill="#E35523"/>
</svg>
