<svg width="24" height="24" viewBox="0 0 24 24" fill="none" xmlns="http://www.w3.org/2000/svg">
<path d="M22.2853 9.14258H19.2377C18.7832 9.14307 18.3475 9.32384 18.0261 9.64523C17.7047 9.96661 17.5239 10.4024 17.5234 10.8569V21.1426C17.5234 21.2941 17.5837 21.4395 17.6908 21.5466C17.798 21.6538 17.9433 21.714 18.0949 21.714H23.4282C23.5797 21.714 23.7251 21.6538 23.8323 21.5466C23.9394 21.4395 23.9996 21.2941 23.9996 21.1426V10.8569C23.9991 10.4024 23.8184 9.96661 23.497 9.64523C23.1756 9.32384 22.7398 9.14307 22.2853 9.14258Z" fill="#E35523"/>
<path d="M23.4286 0H21.1429C20.9913 2.25831e-09 20.846 0.0602039 20.7388 0.167368C20.6316 0.274531 20.5714 0.419876 20.5714 0.571429C20.5714 0.722981 20.6316 0.868326 20.7388 0.97549C20.846 1.08265 20.9913 1.14286 21.1429 1.14286H22.0491L14.994 8.19792L9.2952 3.92373C9.18891 3.84405 9.05818 3.80388 8.92549 3.81012C8.79279 3.81637 8.66641 3.86864 8.56808 3.95796L1.14286 10.7082V0.571429C1.14286 0.419876 1.08265 0.274531 0.97549 0.167368C0.868326 0.0602039 0.722981 0 0.571429 0C0.419876 0 0.274531 0.0602039 0.167368 0.167368C0.0602039 0.274531 2.25831e-09 0.419876 0 0.571429V23.4286C7.07184e-06 23.5801 0.0602132 23.7255 0.167375 23.8326C0.274537 23.9398 0.419878 24 0.571429 24H23.4286C23.5801 24 23.7255 23.9398 23.8326 23.8326C23.9398 23.7255 24 23.5801 24 23.4286C24 23.277 23.9398 23.1317 23.8326 23.0245C23.7255 22.9173 23.5801 22.8571 23.4286 22.8571H1.14286V12.2529L8.98735 5.12128L14.7048 9.4096C14.8149 9.49202 14.951 9.532 15.0881 9.52223C15.2253 9.51246 15.3544 9.45359 15.4516 9.3564L22.8571 1.95089V2.85714C22.8571 3.0087 22.9173 3.15404 23.0245 3.2612C23.1317 3.36837 23.277 3.42857 23.4286 3.42857C23.5801 3.42857 23.7255 3.36837 23.8326 3.2612C23.9398 3.15404 24 3.0087 24 2.85714V0.571429C23.9996 0.420012 23.9392 0.274924 23.8321 0.167856C23.7251 0.0607881 23.58 0.000442212 23.4286 0Z" fill="white"/>
<path d="M11.6186 12.1904C11.1641 12.1909 10.7283 12.3717 10.4069 12.6931C10.0856 13.0145 9.90479 13.4502 9.9043 13.9047V21.1428C9.9043 21.2944 9.96451 21.4397 10.0717 21.5469C10.1788 21.654 10.3242 21.7142 10.4757 21.7142H15.8091C15.9606 21.7142 16.1059 21.654 16.2131 21.5469C16.3203 21.4397 16.3805 21.2944 16.3805 21.1428V13.9047C16.38 13.4502 16.1992 13.0145 15.8778 12.6931C15.5565 12.3717 15.1207 12.1909 14.6662 12.1904H11.6186ZM15.2376 13.9047V20.5714H11.0472V13.9047C11.0473 13.7532 11.1076 13.608 11.2147 13.5008C11.3218 13.3937 11.4671 13.3335 11.6186 13.3333H14.6662C14.8177 13.3335 14.963 13.3937 15.0701 13.5008C15.1772 13.608 15.2375 13.7532 15.2376 13.9047Z" fill="white"/>
<path d="M3.99944 15.2383C3.54494 15.2388 3.10919 15.4195 2.78781 15.7409C2.46642 16.0623 2.28565 16.4981 2.28516 16.9526V21.143C2.28516 21.2946 2.34537 21.4399 2.45253 21.5471C2.55969 21.6543 2.70503 21.7145 2.85658 21.7145H8.18992C8.34147 21.7145 8.48681 21.6543 8.59397 21.5471C8.70113 21.4399 8.76134 21.2946 8.76135 21.143V16.9526C8.76085 16.4981 8.58008 16.0623 8.2587 15.7409C7.93731 15.4195 7.50157 15.2388 7.04706 15.2383H3.99944ZM7.61849 16.9526V20.5716H3.42801V16.9526C3.42818 16.8011 3.48844 16.6558 3.59556 16.5487C3.70269 16.4416 3.84794 16.3813 3.99944 16.3811H7.04706C7.19856 16.3813 7.34381 16.4416 7.45094 16.5487C7.55807 16.6558 7.61832 16.8011 7.61849 16.9526Z" fill="white"/>
</svg>
