<svg width="21" height="24" viewBox="0 0 21 24" fill="none" xmlns="http://www.w3.org/2000/svg">
<path d="M20.9541 7.42914C20.9551 6.49625 20.658 5.58744 20.1061 4.8353C19.5543 4.08316 18.7765 3.52705 17.8863 3.24809C16.9961 2.96914 16.04 2.98194 15.1576 3.28462C14.2752 3.58731 13.5125 4.16404 12.981 4.93068C12.7223 4.8552 12.4592 4.79042 12.1915 4.73829V3.42885H12.763C12.9886 3.4296 13.2121 3.38581 13.4208 3.29999C13.6295 3.21417 13.8191 3.088 13.9789 2.92873C14.1388 2.76946 14.2655 2.58021 14.3521 2.37183C14.4386 2.16345 14.4831 1.94005 14.4831 1.71443C14.4831 1.4888 14.4386 1.2654 14.3521 1.05702C14.2655 0.848649 14.1388 0.659399 13.9789 0.500125C13.8191 0.340852 13.6295 0.214688 13.4208 0.128868C13.2121 0.0430471 12.9886 -0.000742549 12.763 9.52544e-06H8.19116C7.96554 -0.000742549 7.74199 0.0430471 7.53333 0.128868C7.32467 0.214688 7.13499 0.340852 6.97519 0.500125C6.81538 0.659399 6.68859 0.848649 6.60207 1.05702C6.51556 1.2654 6.47102 1.4888 6.47102 1.71443C6.47102 1.94005 6.51556 2.16345 6.60207 2.37183C6.68859 2.58021 6.81538 2.76946 6.97519 2.92873C7.13499 3.088 7.32467 3.21417 7.53333 3.29999C7.74199 3.38581 7.96554 3.4296 8.19116 3.42885H8.76264V4.73829C8.49495 4.79042 8.23181 4.85521 7.97314 4.93068C7.60801 4.40411 7.1317 3.96414 6.57787 3.64184C6.02404 3.31955 5.4062 3.1228 4.76798 3.0655C4.12977 3.0082 3.48675 3.09173 2.88437 3.31021C2.28198 3.52869 1.73492 3.87678 1.28183 4.32989C0.828732 4.78299 0.480661 5.33007 0.262202 5.93246C0.0437425 6.53485 -0.0397753 7.17787 0.0175485 7.81608C0.0748723 8.45429 0.271639 9.07213 0.593949 9.62595C0.916258 10.1798 1.35625 10.6561 1.88283 11.0212C1.348 12.8512 1.41238 14.8043 2.06657 16.5952C2.72076 18.386 3.93048 19.9208 5.51899 20.9751L4.26731 23.1448C4.19224 23.276 4.17224 23.4317 4.2117 23.5777C4.25116 23.7236 4.34685 23.848 4.47783 23.9235C4.6088 23.9991 4.76437 24.0197 4.91048 23.9807C5.05659 23.9418 5.18131 23.8466 5.25734 23.7159L6.50845 21.5472C7.74186 22.1594 9.10014 22.4779 10.4771 22.4779C11.854 22.4779 13.2123 22.1594 14.4457 21.5472L15.6968 23.7159C15.7729 23.8466 15.8976 23.9418 16.0437 23.9807C16.1898 24.0197 16.3454 23.9991 16.4763 23.9235C16.6073 23.848 16.703 23.7236 16.7425 23.5777C16.7819 23.4317 16.7619 23.276 16.6869 23.1448L15.4352 20.9751C17.0237 19.9208 18.2334 18.386 18.8876 16.5952C19.5418 14.8043 19.6062 12.8512 19.0713 11.0212C19.6518 10.6189 20.1262 10.082 20.4541 9.45649C20.7819 8.83097 20.9535 8.13538 20.9541 7.42914ZM7.61969 1.71442C7.61985 1.5629 7.68011 1.41764 7.78725 1.31051C7.89439 1.20337 8.03965 1.14311 8.19116 1.14294H12.763C12.9145 1.14294 13.0599 1.20315 13.1671 1.31032C13.2742 1.4175 13.3344 1.56285 13.3344 1.71442C13.3344 1.86598 13.2742 2.01134 13.1671 2.11851C13.0599 2.22569 12.9145 2.28589 12.763 2.28589H8.19116C8.03965 2.28573 7.89439 2.22547 7.78725 2.11833C7.68011 2.01119 7.61985 1.86593 7.61969 1.71442ZM9.90559 3.42885H11.0485V4.59197C10.8594 4.58 10.6692 4.57178 10.4771 4.57178C10.2849 4.57178 10.0948 4.57998 9.90559 4.59197V3.42885ZM1.14296 7.42914C1.14169 6.7656 1.34467 6.11774 1.72434 5.57355C2.10401 5.02936 2.64197 4.61521 3.26517 4.38735C3.88836 4.15948 4.56658 4.12894 5.20773 4.29987C5.84888 4.4708 6.42189 4.83493 6.84893 5.34279C4.82142 6.24746 3.1996 7.86929 2.29494 9.89681C1.93494 9.59408 1.64534 9.21643 1.44638 8.79022C1.24741 8.36401 1.14386 7.8995 1.14296 7.42914ZM10.4771 21.3349C8.93238 21.3349 7.42238 20.8769 6.13802 20.0187C4.85366 19.1605 3.85263 17.9407 3.26151 16.5136C2.67039 15.0865 2.51573 13.5161 2.8171 12.0011C3.11846 10.4861 3.8623 9.09449 4.95457 8.00223C6.04684 6.90997 7.43846 6.16614 8.95347 5.86479C10.4685 5.56344 12.0388 5.71811 13.4659 6.30924C14.893 6.90037 16.1128 7.90141 16.971 9.18577C17.8292 10.4701 18.2872 11.9801 18.2872 13.5248C18.2849 15.5955 17.4613 17.5807 15.9971 19.0448C14.5329 20.509 12.5477 21.3326 10.4771 21.3349ZM14.1052 5.34279C14.3935 4.99997 14.7499 4.72082 15.1517 4.52304C15.5536 4.32525 15.9922 4.21316 16.4397 4.19386C16.8872 4.17456 17.3338 4.24848 17.7512 4.41093C18.1687 4.57339 18.5477 4.82082 18.8645 5.13754C19.1812 5.45427 19.4286 5.83336 19.5911 6.25077C19.7535 6.66819 19.8274 7.11481 19.8081 7.5623C19.7888 8.0098 19.6767 8.4484 19.479 8.85028C19.2812 9.25215 19.002 9.60853 18.6592 9.89681C17.7545 7.86929 16.1327 6.24746 14.1052 5.34279Z" fill="#324438"/>
<path d="M10.4766 7.23828C9.23329 7.23829 8.01792 7.60698 6.98417 8.29772C5.95042 8.98846 5.14471 9.97023 4.66893 11.1189C4.19315 12.2675 4.06867 13.5315 4.31123 14.7509C4.55379 15.9703 5.15249 17.0904 6.03163 17.9695C6.91077 18.8486 8.03087 19.4473 9.25027 19.6899C10.4697 19.9324 11.7336 19.8079 12.8823 19.3321C14.0309 18.8564 15.0127 18.0506 15.7034 17.0169C16.3941 15.9831 16.7628 14.7678 16.7628 13.5245C16.7609 11.8578 16.098 10.26 14.9195 9.08153C13.741 7.90305 12.1432 7.24016 10.4766 7.23828ZM14.2014 14.0959H10.4766C10.4015 14.0959 10.3272 14.0812 10.2579 14.0525C10.1885 14.0237 10.1255 13.9817 10.0725 13.9286C10.0194 13.8755 9.97729 13.8125 9.94858 13.7432C9.91986 13.6738 9.90509 13.5995 9.9051 13.5245V9.79744C9.9051 9.64587 9.96531 9.50052 10.0725 9.39334C10.1797 9.28617 10.325 9.22596 10.4766 9.22596C10.6281 9.22596 10.7735 9.28617 10.8807 9.39334C10.9878 9.50052 11.0481 9.64587 11.0481 9.79744V12.953H14.2014C14.353 12.953 14.4983 13.0132 14.6055 13.1204C14.7127 13.2275 14.7729 13.3729 14.7729 13.5245C14.7729 13.676 14.7127 13.8214 14.6055 13.9286C14.4983 14.0357 14.353 14.0959 14.2014 14.0959Z" fill="#E35523"/>
</svg>
