<svg width="21" height="24" viewBox="0 0 21 24" fill="none" xmlns="http://www.w3.org/2000/svg">
<path d="M16.1896 0H4.76107C4.40758 0.000427453 4.06869 0.14104 3.81873 0.390996C3.56877 0.640952 3.42816 0.979843 3.42773 1.33333V5.90476C3.42774 6.05631 3.48795 6.20165 3.59511 6.30881C3.70227 6.41598 3.84761 6.47618 3.99916 6.47619H6.22833C6.66086 6.4771 7.08567 6.59086 7.46077 6.80624C7.83587 7.02161 8.14827 7.33115 8.36709 7.70424L8.81836 8.47824C8.86869 8.56453 8.94075 8.63614 9.02737 8.68591C9.11399 8.73568 9.21213 8.76188 9.31203 8.7619H16.9515C17.1031 8.7619 17.2484 8.70169 17.3556 8.59453C17.4628 8.48737 17.523 8.34203 17.523 8.19048V1.33333C17.5225 0.979843 17.3819 0.640952 17.132 0.390996C16.882 0.14104 16.5431 0.000427453 16.1896 0ZM15.0468 6.85714H10.4754C10.3238 6.85714 10.1785 6.79694 10.0713 6.68977C9.96413 6.58261 9.90392 6.43727 9.90392 6.28571C9.90392 6.13416 9.96413 5.98882 10.0713 5.88165C10.1785 5.77449 10.3238 5.71429 10.4754 5.71429H15.0468C15.1983 5.71429 15.3437 5.77449 15.4508 5.88165C15.558 5.98882 15.6182 6.13416 15.6182 6.28571C15.6182 6.43727 15.558 6.58261 15.4508 6.68977C15.3437 6.79694 15.1983 6.85714 15.0468 6.85714ZM15.0468 4.57143H5.90392C5.75237 4.57143 5.60703 4.51122 5.49986 4.40406C5.3927 4.2969 5.3325 4.15155 5.3325 4C5.3325 3.84845 5.3927 3.7031 5.49986 3.59594C5.60703 3.48878 5.75237 3.42857 5.90392 3.42857H15.0468C15.1983 3.42857 15.3437 3.48878 15.4508 3.59594C15.558 3.7031 15.6182 3.84845 15.6182 4C15.6182 4.15155 15.558 4.2969 15.4508 4.40406C15.3437 4.51122 15.1983 4.57143 15.0468 4.57143ZM15.0468 2.28571H5.90392C5.75237 2.28571 5.60703 2.22551 5.49986 2.11835C5.3927 2.01118 5.3325 1.86584 5.3325 1.71429C5.3325 1.56273 5.3927 1.41739 5.49986 1.31022C5.60703 1.20306 5.75237 1.14286 5.90392 1.14286H15.0468C15.1983 1.14286 15.3437 1.20306 15.4508 1.31022C15.558 1.41739 15.6182 1.56273 15.6182 1.71429C15.6182 1.86584 15.558 2.01118 15.4508 2.11835C15.3437 2.22551 15.1983 2.28571 15.0468 2.28571Z" fill="#E35523"/>
<path d="M19.619 12.1906H19.0476V10.4763C19.0476 10.3247 18.9874 10.1794 18.8802 10.0722C18.7731 9.96507 18.6277 9.90486 18.4762 9.90486H8.32833L7.38095 8.2806C7.26315 8.07963 7.09493 7.91289 6.89292 7.79688C6.69091 7.68087 6.46212 7.6196 6.22917 7.61914H1.33333C0.979843 7.61957 0.640952 7.76018 0.390996 8.01014C0.141041 8.26009 0.000427453 8.59898 0 8.95247V22.6668C0.000427453 23.0203 0.141041 23.3591 0.390996 23.6091C0.640952 23.8591 0.979843 23.9997 1.33333 24.0001H19.619C19.9725 23.9997 20.3114 23.8591 20.5614 23.6091C20.8113 23.3591 20.952 23.0203 20.9524 22.6668V13.5239C20.952 13.1704 20.8113 12.8315 20.5614 12.5816C20.3114 12.3316 19.9725 12.191 19.619 12.1906ZM17.9048 11.0477V12.1906H9.77083C9.73757 12.1905 9.70491 12.1817 9.67607 12.1652C9.64723 12.1486 9.62322 12.1248 9.6064 12.0961L8.99493 11.0477H17.9048ZM19.8095 22.6668C19.8094 22.7172 19.7893 22.7656 19.7536 22.8013C19.7179 22.837 19.6695 22.8571 19.619 22.8572H1.33333C1.28285 22.8571 1.23446 22.837 1.19876 22.8013C1.16306 22.7656 1.14296 22.7172 1.14286 22.6668V8.95247C1.14292 8.90198 1.16301 8.85357 1.19872 8.81786C1.23443 8.78215 1.28284 8.76206 1.33333 8.762H6.22917C6.26243 8.76207 6.29509 8.77083 6.32393 8.7874C6.35277 8.80397 6.37678 8.82778 6.3936 8.85647L8.61905 12.672C8.73682 12.873 8.90504 13.0397 9.10705 13.1557C9.30907 13.2718 9.53788 13.333 9.77083 13.3334H19.619C19.6695 13.3335 19.7179 13.3536 19.7536 13.3893C19.7893 13.425 19.8094 13.4734 19.8095 13.5239V22.6668Z" fill="white"/>
<path d="M18.096 16H13.5246C13.373 16 13.2277 16.0602 13.1205 16.1674C13.0133 16.2745 12.9531 16.4199 12.9531 16.5714C12.9531 16.723 13.0133 16.8683 13.1205 16.9755C13.2277 17.0827 13.373 17.1429 13.5246 17.1429H18.096C18.2475 17.1429 18.3929 17.0827 18.5 16.9755C18.6072 16.8683 18.6674 16.723 18.6674 16.5714C18.6674 16.4199 18.6072 16.2745 18.5 16.1674C18.3929 16.0602 18.2475 16 18.096 16Z" fill="white"/>
<path d="M18.096 18.2861H13.5246C13.373 18.2861 13.2277 18.3463 13.1205 18.4535C13.0133 18.5607 12.9531 18.706 12.9531 18.8576C12.9531 19.0091 13.0133 19.1545 13.1205 19.2616C13.2277 19.3688 13.373 19.429 13.5246 19.429H18.096C18.2475 19.429 18.3929 19.3688 18.5 19.2616C18.6072 19.1545 18.6674 19.0091 18.6674 18.8576C18.6674 18.706 18.6072 18.5607 18.5 18.4535C18.3929 18.3463 18.2475 18.2861 18.096 18.2861Z" fill="white"/>
<path d="M18.096 20.5713H13.5246C13.373 20.5713 13.2277 20.6315 13.1205 20.7387C13.0133 20.8458 12.9531 20.9912 12.9531 21.1427C12.9531 21.2943 13.0133 21.4396 13.1205 21.5468C13.2277 21.6539 13.373 21.7141 13.5246 21.7141H18.096C18.2475 21.7141 18.3929 21.6539 18.5 21.5468C18.6072 21.4396 18.6674 21.2943 18.6674 21.1427C18.6674 20.9912 18.6072 20.8458 18.5 20.7387C18.3929 20.6315 18.2475 20.5713 18.096 20.5713Z" fill="white"/>
</svg>
